PathFileType	4	(X/Y/Z)	C:/Users/opensim2020/Desktop/walking_exp_matlab/subject02_walking10_straight_04.trc																																																																																																																															
DataRate	CameraRate	NumFrames	NumMarkers	Units	OrigDataRate	OrigDataStartFrame	OrigNumFrames																																																																																																																											
100	100	4	43	mm	100	3149	260																																																																																																																											
Frame#	Time	LFHD			RFHD			LBHD			RBHD			C7			T10			CLAV			STRN			RBAK			LSHO			LUPA			LELB			LFRM			LWRA			LWRB			LFIN			RSHO			RUPA			RELB			RFRM			RWRA			RWRB			RFIN			LASI			RASI			LPSI			RPSI			LTHI			LKNE			LTIB			LANK			LHEE			LTOE			RTHI			RKNE			RTIB			RANK			RHEE			RTOE			*39			*40			*41			*42		
		X1	Y1	Z1	X2	Y2	Z2	X3	Y3	Z3	X4	Y4	Z4	X5	Y5	Z5	X6	Y6	Z6	X7	Y7	Z7	X8	Y8	Z8	X9	Y9	Z9	X10	Y10	Z10	X11	Y11	Z11	X12	Y12	Z12	X13	Y13	Z13	X14	Y14	Z14	X15	Y15	Z15	X16	Y16	Z16	X17	Y17	Z17	X18	Y18	Z18	X19	Y19	Z19	X20	Y20	Z20	X21	Y21	Z21	X22	Y22	Z22	X23	Y23	Z23	X24	Y24	Z24	X25	Y25	Z25	X26	Y26	Z26	X27	Y27	Z27	X28	Y28	Z28	X29	Y29	Z29	X30	Y30	Z30	X31	Y31	Z31	X32	Y32	Z32	X33	Y33	Z33	X34	Y34	Z34	X35	Y35	Z35	X36	Y36	Z36	X37	Y37	Z37	X38	Y38	Z38	X39	Y39	Z39	X40	Y40	Z40	X41	Y41	Z41	X42	Y42	Z42	X43	Y43	Z43
																																																																																																																																		
98	0.97	-29.96136	1752.84705	1031.78357	0.77369	1727.53894	1170.16919	-147.27518	1659.45752	1043.23975	-128.60124	1630.04736	1182.26721	-163.97603	1506.72913	1113.50806	-186.7422	1232.62769	1113.71899	-18.68087	1461.66858	1072.87646	54.76542	1296.32373	1075.78198	-188.43896	1331.77869	1184.57593	-127.39782	1489.94226	921.89124	-152.56718	1290.0459	843.1557	-161.92355	1151.4126	835.41492	-169.75021	1022.76459	812.77954	-121.96202	889.21899	819.44452	-173.72253	899.71704	800.32281	-165.66599	832.64435	791.60712	-47.32504	1490.01257	1280.1239	-25.48047	1296.22217	1362.32397	22.18321	1156.7583	1376.12097	85.95953	1052.92432	1381.82788	160.17874	945.09717	1343.31824	127.76663	929.25171	1386.58643	180.4194	879.88312	1374.70166	57.12649	1000.09888	947.78168	59.95296	961.5802	1197.25037	-154.23882	1025.58862	1033.58105	-154.6553	1018.17804	1150.20288	43.04788	685.22253	893.05127	37.07534	480.8699	929.8764	-1.35146	288.55594	936.67786	20.2503	70.03738	980.18768	-12.04091	43.40441	1034.93835	177.1452	33.84635	962.92615	-65.85378	661.29449	1280.96118	-93.1544	460.86075	1275.71448	-240.82828	348.7532	1279.84583	-376.83633	213.04405	1247.79724	-427.53619	205.50867	1185.61987	-336.75565	48.81213	1242.36011	-120.65464	1796.76965	1143.9541	NaN	NaN	NaN	NaN	NaN	NaN	NaN	NaN	NaN
99	0.98	-20.99223	1753.47986	1029.98596	9.22984	1728.21558	1168.7207	-138.45247	1660.68323	1041.20935	-120.82222	1631.32312	1180.17041	-156.04225	1508.05225	1111.34778	-179.48001	1233.81677	1111.4325	-10.66931	1462.86377	1071.51819	62.77063	1297.51929	1074.6106	-180.77208	1332.43567	1181.59253	-118.56487	1491.1825	919.94342	-142.20744	1291.08557	840.36469	-149.88348	1152.36731	831.82916	-155.0466	1023.30542	808.99866	-105.021	890.9278	815.9986	-156.95929	900.2677	796.50726	-147.48271	833.77441	787.52704	-40.48845	1490.8385	1278.64685	-19.03605	1296.80884	1360.75537	27.73706	1157.14709	1373.97046	90.93562	1052.9906	1380.12122	164.99051	944.71515	1342.06555	132.18567	929.13031	1385.15186	184.27792	878.96643	1373.28027	65.15954	1000.72424	945.97162	67.8386	962.97137	1195.83154	-146.07455	1026.41675	1030.79224	-147.22006	1019.30078	1147.35889	46.04036	684.55261	891.91461	38.72842	480.75488	928.58289	-0.19768	288.61563	935.90649	20.16065	70.01038	980.15015	-12.13285	43.36962	1034.88037	177.03471	33.8349	962.83636	-51.67143	661.71252	1279.94202	-74.6772	461.11267	1275.28015	-223.52521	351.72302	1279.19202	-362.1564	219.48109	1246.4137	-411.52869	214.66347	1183.24805	-330.32462	52.79044	1241.64722	-111.62379	1798.25977	1141.92786	-2845.12842	1034.18738	3360.2334	NaN	NaN	NaN	NaN	NaN	NaN
100	0.99	-11.90977	1754.526	1028.31885	17.87465	1728.8728	1167.5769	-129.76518	1662.19055	1039.16284	-112.9534	1633.12769	1178.4093	-148.04449	1509.4386	1109.21118	-171.0605	1234.88965	1108.89111	-2.68334	1464.02197	1070.2616	70.70509	1298.60925	1073.46204	-173.49246	1333.8479	1179.57581	-109.57171	1492.45032	917.9613	-132.20961	1292.37622	837.40674	-137.73625	1153.28723	828.19501	-140.56134	1024.25879	805.31018	-87.99259	892.77875	812.71173	-139.84953	901.05042	792.7865	-128.91289	834.92462	783.37701	-33.63431	1491.66199	1277.28564	-12.77017	1297.53772	1359.75903	33.35174	1157.64868	1372.19214	96.00076	1053.06543	1378.61548	169.59102	944.05725	1340.78284	136.51447	929.02167	1383.80957	188.1077	878.10895	1372.11804	73.13439	1001.03107	944.28662	75.33942	964.45837	1194.70435	-138.07539	1027.52979	1027.98132	-140.08965	1020.54773	1144.34424	48.63768	684.29987	890.60028	40.69922	480.65002	927.47034	0.68081	288.71509	935.2547	20.04029	69.9506	980.12238	-12.1738	43.33106	1034.72961	176.89514	33.79718	962.81787	-37.22813	662.4151	1279.03455	-56.2836	461.89078	1274.65503	-206.44057	355.03369	1278.39929	-347.02722	225.55879	1244.39429	-394.43646	223.12788	1180.1189	-323.14175	57.02454	1241.70288	-102.53447	1799.77625	1139.93787	-2845.81396	1034.16187	3356.88867	NaN	NaN	NaN	NaN	NaN	NaN
101	1	-2.1166	1755.36218	1027.25439	26.37712	1729.59583	1166.18835	-120.89609	1664.07739	1037.41772	-105.05345	1634.71179	1176.5647	-140.07671	1510.87756	1107.12756	-163.41808	1236.08057	1106.25891	5.25836	1465.11731	1069.02759	78.2202	1299.57336	1072.29395	-166.18185	1334.5918	1176.854	-100.37705	1493.7627	915.92847	-121.53423	1293.44312	834.46716	-125.34386	1154.05957	824.64618	-125.74303	1025.06763	801.6217	-70.5874	894.5274	809.60126	-122.6518	902.14209	789.2066	-110.13098	836.5296	779.26367	-26.85632	1492.42896	1276.03174	-6.83002	1298.17371	1358.36389	38.9153	1157.91296	1370.01379	100.95773	1053.12561	1377.10425	174.41399	943.90918	1339.95105	140.74707	929.05524	1382.7124	191.77104	877.42267	1371.08679	81.02588	1000.97101	942.84845	82.61472	965.88684	1193.72266	-130.27065	1028.73169	1025.11279	-133.25714	1021.82861	1141.29736	51.34975	684.10638	889.64429	42.90359	480.60925	926.40735	1.3501	288.8909	934.65558	19.92669	69.89633	980.03894	-12.38419	43.3271	1034.68066	176.74533	33.79662	962.81689	-22.60077	663.4054	1278.60156	-38.04241	463.07544	1273.95129	-189.02646	358.09439	1277.12097	-331.50165	231.25668	1241.94885	-376.9118	230.44511	1176.37305	-314.47574	61.61861	1242.64893	-93.41715	1801.26074	1137.97632	-2846.00635	1034.16418	3356.7981	NaN	NaN	NaN	NaN	NaN	NaN
